<mxfile host="Electron" modified="2023-07-20T18:10:14.907Z" agent="Mozilla/5.0 (Windows NT 10.0; Win64; x64) AppleWebKit/537.36 (KHTML, like Gecko) draw.io/21.6.1 Chrome/112.0.5615.204 Electron/24.6.1 Safari/537.36" etag="ZkyFcJR6CZuWsLpoze-c" version="21.6.1" type="device">
  <diagram name="Page-1" id="Y7KvWKeOSKiwgBi6ouKE">
    <mxGraphModel dx="2058" dy="583" grid="1" gridSize="10" guides="1" tooltips="1" connect="1" arrows="1" fold="1" page="1" pageScale="1" pageWidth="827" pageHeight="1169" math="0" shadow="0">
      <root>
        <mxCell id="0" />
        <mxCell id="1" parent="0" />
        <mxCell id="_9Xual9Ycu1BCJmLohrW-1" value="Student" style="whiteSpace=wrap;html=1;align=center;" vertex="1" parent="1">
          <mxGeometry x="110" y="160" width="100" height="40" as="geometry" />
        </mxCell>
        <mxCell id="_9Xual9Ycu1BCJmLohrW-4" value="Subjects" style="whiteSpace=wrap;html=1;" vertex="1" parent="1">
          <mxGeometry x="600" y="160" width="120" height="40" as="geometry" />
        </mxCell>
        <mxCell id="_9Xual9Ycu1BCJmLohrW-6" value="" style="endArrow=none;html=1;rounded=0;exitX=1;exitY=0.5;exitDx=0;exitDy=0;" edge="1" parent="1" source="_9Xual9Ycu1BCJmLohrW-1" target="_9Xual9Ycu1BCJmLohrW-87">
          <mxGeometry relative="1" as="geometry">
            <mxPoint x="220" y="179.5" as="sourcePoint" />
            <mxPoint x="374" y="180" as="targetPoint" />
          </mxGeometry>
        </mxCell>
        <mxCell id="_9Xual9Ycu1BCJmLohrW-8" value="Stu_name" style="ellipse;whiteSpace=wrap;html=1;align=center;" vertex="1" parent="1">
          <mxGeometry x="30" y="50" width="100" height="40" as="geometry" />
        </mxCell>
        <mxCell id="_9Xual9Ycu1BCJmLohrW-9" value="&lt;u&gt;Stu_id&lt;/u&gt;" style="ellipse;whiteSpace=wrap;html=1;align=center;" vertex="1" parent="1">
          <mxGeometry x="120" y="10" width="100" height="40" as="geometry" />
        </mxCell>
        <mxCell id="_9Xual9Ycu1BCJmLohrW-10" value="average" style="ellipse;whiteSpace=wrap;html=1;align=center;" vertex="1" parent="1">
          <mxGeometry x="230" y="40" width="100" height="40" as="geometry" />
        </mxCell>
        <mxCell id="_9Xual9Ycu1BCJmLohrW-11" value="position" style="ellipse;whiteSpace=wrap;html=1;align=center;" vertex="1" parent="1">
          <mxGeometry x="-50" y="120" width="100" height="40" as="geometry" />
        </mxCell>
        <mxCell id="_9Xual9Ycu1BCJmLohrW-12" value="remarks" style="ellipse;whiteSpace=wrap;html=1;align=center;" vertex="1" parent="1">
          <mxGeometry x="230" y="110" width="100" height="40" as="geometry" />
        </mxCell>
        <mxCell id="_9Xual9Ycu1BCJmLohrW-13" value="" style="endArrow=none;html=1;rounded=0;exitX=0;exitY=1;exitDx=0;exitDy=0;" edge="1" parent="1" source="_9Xual9Ycu1BCJmLohrW-12" target="_9Xual9Ycu1BCJmLohrW-1">
          <mxGeometry relative="1" as="geometry">
            <mxPoint x="330" y="300" as="sourcePoint" />
            <mxPoint x="490" y="300" as="targetPoint" />
          </mxGeometry>
        </mxCell>
        <mxCell id="_9Xual9Ycu1BCJmLohrW-14" value="" style="endArrow=none;html=1;rounded=0;exitX=1;exitY=0.5;exitDx=0;exitDy=0;entryX=0;entryY=0.5;entryDx=0;entryDy=0;" edge="1" parent="1" source="_9Xual9Ycu1BCJmLohrW-11" target="_9Xual9Ycu1BCJmLohrW-1">
          <mxGeometry relative="1" as="geometry">
            <mxPoint x="200" y="300" as="sourcePoint" />
            <mxPoint x="185" y="212" as="targetPoint" />
          </mxGeometry>
        </mxCell>
        <mxCell id="_9Xual9Ycu1BCJmLohrW-15" value="" style="endArrow=none;html=1;rounded=0;exitX=0.5;exitY=1;exitDx=0;exitDy=0;entryX=0.142;entryY=-0.049;entryDx=0;entryDy=0;entryPerimeter=0;" edge="1" parent="1" source="_9Xual9Ycu1BCJmLohrW-8" target="_9Xual9Ycu1BCJmLohrW-1">
          <mxGeometry relative="1" as="geometry">
            <mxPoint x="80" y="280" as="sourcePoint" />
            <mxPoint x="138" y="211" as="targetPoint" />
          </mxGeometry>
        </mxCell>
        <mxCell id="_9Xual9Ycu1BCJmLohrW-16" value="" style="endArrow=none;html=1;rounded=0;exitX=0.5;exitY=1;exitDx=0;exitDy=0;entryX=0.25;entryY=0;entryDx=0;entryDy=0;" edge="1" parent="1" source="_9Xual9Ycu1BCJmLohrW-9" target="_9Xual9Ycu1BCJmLohrW-1">
          <mxGeometry relative="1" as="geometry">
            <mxPoint x="90" y="100" as="sourcePoint" />
            <mxPoint x="140" y="160" as="targetPoint" />
          </mxGeometry>
        </mxCell>
        <mxCell id="_9Xual9Ycu1BCJmLohrW-17" value="" style="endArrow=none;html=1;rounded=0;exitX=0.045;exitY=0.874;exitDx=0;exitDy=0;entryX=0.5;entryY=0;entryDx=0;entryDy=0;exitPerimeter=0;" edge="1" parent="1" source="_9Xual9Ycu1BCJmLohrW-10" target="_9Xual9Ycu1BCJmLohrW-1">
          <mxGeometry relative="1" as="geometry">
            <mxPoint x="180" y="60" as="sourcePoint" />
            <mxPoint x="145" y="170" as="targetPoint" />
          </mxGeometry>
        </mxCell>
        <mxCell id="_9Xual9Ycu1BCJmLohrW-18" value="&lt;u&gt;subject_name&lt;/u&gt;" style="ellipse;whiteSpace=wrap;html=1;align=center;" vertex="1" parent="1">
          <mxGeometry x="530" y="70" width="100" height="40" as="geometry" />
        </mxCell>
        <mxCell id="_9Xual9Ycu1BCJmLohrW-19" value="marks" style="ellipse;whiteSpace=wrap;html=1;align=center;" vertex="1" parent="1">
          <mxGeometry x="430" y="490" width="100" height="40" as="geometry" />
        </mxCell>
        <mxCell id="_9Xual9Ycu1BCJmLohrW-20" value="" style="endArrow=none;html=1;rounded=0;entryX=0.5;entryY=1;entryDx=0;entryDy=0;exitX=0.5;exitY=0;exitDx=0;exitDy=0;" edge="1" parent="1" source="_9Xual9Ycu1BCJmLohrW-22" target="_9Xual9Ycu1BCJmLohrW-4">
          <mxGeometry relative="1" as="geometry">
            <mxPoint x="464" y="260" as="sourcePoint" />
            <mxPoint x="610" y="260" as="targetPoint" />
          </mxGeometry>
        </mxCell>
        <mxCell id="_9Xual9Ycu1BCJmLohrW-22" value="Study" style="shape=rhombus;perimeter=rhombusPerimeter;whiteSpace=wrap;html=1;align=center;" vertex="1" parent="1">
          <mxGeometry x="600" y="280" width="120" height="60" as="geometry" />
        </mxCell>
        <mxCell id="_9Xual9Ycu1BCJmLohrW-24" value="" style="endArrow=none;html=1;rounded=0;exitX=0.429;exitY=0.031;exitDx=0;exitDy=0;exitPerimeter=0;entryX=0;entryY=0.5;entryDx=0;entryDy=0;" edge="1" parent="1" source="_9Xual9Ycu1BCJmLohrW-19">
          <mxGeometry relative="1" as="geometry">
            <mxPoint x="330" y="300" as="sourcePoint" />
            <mxPoint x="602" y="450" as="targetPoint" />
          </mxGeometry>
        </mxCell>
        <mxCell id="_9Xual9Ycu1BCJmLohrW-25" value="Register" style="shape=rhombus;perimeter=rhombusPerimeter;whiteSpace=wrap;html=1;align=center;" vertex="1" parent="1">
          <mxGeometry x="100" y="300" width="120" height="60" as="geometry" />
        </mxCell>
        <mxCell id="_9Xual9Ycu1BCJmLohrW-26" value="Class_teacher" style="whiteSpace=wrap;html=1;align=center;" vertex="1" parent="1">
          <mxGeometry x="110" y="450" width="100" height="40" as="geometry" />
        </mxCell>
        <mxCell id="_9Xual9Ycu1BCJmLohrW-27" value="" style="endArrow=none;html=1;rounded=0;exitX=0.5;exitY=0;exitDx=0;exitDy=0;entryX=0.5;entryY=1;entryDx=0;entryDy=0;shape=link;" edge="1" parent="1" source="_9Xual9Ycu1BCJmLohrW-25" target="_9Xual9Ycu1BCJmLohrW-1">
          <mxGeometry relative="1" as="geometry">
            <mxPoint x="483" y="501" as="sourcePoint" />
            <mxPoint x="610" y="460" as="targetPoint" />
          </mxGeometry>
        </mxCell>
        <mxCell id="_9Xual9Ycu1BCJmLohrW-28" value="" style="endArrow=none;html=1;rounded=0;exitX=0.5;exitY=1;exitDx=0;exitDy=0;entryX=0.5;entryY=0;entryDx=0;entryDy=0;" edge="1" parent="1" source="_9Xual9Ycu1BCJmLohrW-25" target="_9Xual9Ycu1BCJmLohrW-26">
          <mxGeometry relative="1" as="geometry">
            <mxPoint x="170" y="310" as="sourcePoint" />
            <mxPoint x="170" y="210" as="targetPoint" />
          </mxGeometry>
        </mxCell>
        <mxCell id="_9Xual9Ycu1BCJmLohrW-29" value="teacher_name" style="ellipse;whiteSpace=wrap;html=1;align=center;" vertex="1" parent="1">
          <mxGeometry x="650" y="50" width="100" height="40" as="geometry" />
        </mxCell>
        <mxCell id="_9Xual9Ycu1BCJmLohrW-30" value="" style="endArrow=none;html=1;rounded=0;entryX=0.179;entryY=0.029;entryDx=0;entryDy=0;entryPerimeter=0;" edge="1" parent="1" source="_9Xual9Ycu1BCJmLohrW-18" target="_9Xual9Ycu1BCJmLohrW-4">
          <mxGeometry relative="1" as="geometry">
            <mxPoint x="330" y="300" as="sourcePoint" />
            <mxPoint x="490" y="300" as="targetPoint" />
          </mxGeometry>
        </mxCell>
        <mxCell id="_9Xual9Ycu1BCJmLohrW-31" value="" style="endArrow=none;html=1;rounded=0;entryX=0.5;entryY=0;entryDx=0;entryDy=0;" edge="1" parent="1" source="_9Xual9Ycu1BCJmLohrW-29" target="_9Xual9Ycu1BCJmLohrW-4">
          <mxGeometry relative="1" as="geometry">
            <mxPoint x="601" y="119" as="sourcePoint" />
            <mxPoint x="631" y="171" as="targetPoint" />
          </mxGeometry>
        </mxCell>
        <mxCell id="_9Xual9Ycu1BCJmLohrW-32" value="&lt;u&gt;test_name&lt;/u&gt;" style="ellipse;whiteSpace=wrap;html=1;align=center;" vertex="1" parent="1">
          <mxGeometry x="560" y="510" width="100" height="40" as="geometry" />
        </mxCell>
        <mxCell id="_9Xual9Ycu1BCJmLohrW-33" value="" style="endArrow=none;html=1;rounded=0;exitX=0.5;exitY=0;exitDx=0;exitDy=0;entryX=0.346;entryY=1.027;entryDx=0;entryDy=0;entryPerimeter=0;" edge="1" parent="1" source="_9Xual9Ycu1BCJmLohrW-32">
          <mxGeometry relative="1" as="geometry">
            <mxPoint x="483" y="501" as="sourcePoint" />
            <mxPoint x="636.5999999999999" y="471.0799999999999" as="targetPoint" />
          </mxGeometry>
        </mxCell>
        <mxCell id="_9Xual9Ycu1BCJmLohrW-35" value="&lt;u&gt;teacher_NIC&lt;/u&gt;" style="ellipse;whiteSpace=wrap;html=1;align=center;" vertex="1" parent="1">
          <mxGeometry x="254" y="390" width="100" height="40" as="geometry" />
        </mxCell>
        <mxCell id="_9Xual9Ycu1BCJmLohrW-36" value="" style="endArrow=none;html=1;rounded=0;exitX=0.063;exitY=0.803;exitDx=0;exitDy=0;entryX=1;entryY=0.25;entryDx=0;entryDy=0;exitPerimeter=0;" edge="1" parent="1" source="_9Xual9Ycu1BCJmLohrW-35" target="_9Xual9Ycu1BCJmLohrW-26">
          <mxGeometry relative="1" as="geometry">
            <mxPoint x="170" y="370" as="sourcePoint" />
            <mxPoint x="170" y="460" as="targetPoint" />
          </mxGeometry>
        </mxCell>
        <mxCell id="_9Xual9Ycu1BCJmLohrW-37" value="User_name" style="ellipse;whiteSpace=wrap;html=1;align=center;" vertex="1" parent="1">
          <mxGeometry x="270" y="470" width="100" height="40" as="geometry" />
        </mxCell>
        <mxCell id="_9Xual9Ycu1BCJmLohrW-38" value="" style="endArrow=none;html=1;rounded=0;exitX=0;exitY=0.5;exitDx=0;exitDy=0;entryX=1;entryY=0.75;entryDx=0;entryDy=0;" edge="1" parent="1" source="_9Xual9Ycu1BCJmLohrW-37" target="_9Xual9Ycu1BCJmLohrW-26">
          <mxGeometry relative="1" as="geometry">
            <mxPoint x="270" y="432" as="sourcePoint" />
            <mxPoint x="220" y="470" as="targetPoint" />
          </mxGeometry>
        </mxCell>
        <mxCell id="_9Xual9Ycu1BCJmLohrW-39" value="e_mail" style="ellipse;whiteSpace=wrap;html=1;align=center;" vertex="1" parent="1">
          <mxGeometry x="190" y="530" width="100" height="40" as="geometry" />
        </mxCell>
        <mxCell id="_9Xual9Ycu1BCJmLohrW-40" value="" style="endArrow=none;html=1;rounded=0;exitX=0.276;exitY=-0.056;exitDx=0;exitDy=0;entryX=0.75;entryY=1;entryDx=0;entryDy=0;exitPerimeter=0;" edge="1" parent="1" source="_9Xual9Ycu1BCJmLohrW-39" target="_9Xual9Ycu1BCJmLohrW-26">
          <mxGeometry relative="1" as="geometry">
            <mxPoint x="280" y="500" as="sourcePoint" />
            <mxPoint x="220" y="490" as="targetPoint" />
          </mxGeometry>
        </mxCell>
        <mxCell id="_9Xual9Ycu1BCJmLohrW-43" value="Class" style="ellipse;whiteSpace=wrap;html=1;align=center;" vertex="1" parent="1">
          <mxGeometry x="-20" y="410" width="100" height="40" as="geometry" />
        </mxCell>
        <mxCell id="_9Xual9Ycu1BCJmLohrW-44" value="" style="endArrow=none;html=1;rounded=0;entryX=0;entryY=0.25;entryDx=0;entryDy=0;" edge="1" parent="1" source="_9Xual9Ycu1BCJmLohrW-43" target="_9Xual9Ycu1BCJmLohrW-26">
          <mxGeometry relative="1" as="geometry">
            <mxPoint x="90" y="550" as="sourcePoint" />
            <mxPoint x="134" y="503" as="targetPoint" />
          </mxGeometry>
        </mxCell>
        <mxCell id="_9Xual9Ycu1BCJmLohrW-45" value="M" style="text;html=1;align=center;verticalAlign=middle;resizable=0;points=[];autosize=1;strokeColor=none;fillColor=none;" vertex="1" parent="1">
          <mxGeometry x="125" y="198" width="30" height="30" as="geometry" />
        </mxCell>
        <mxCell id="_9Xual9Ycu1BCJmLohrW-46" value="1" style="text;html=1;align=center;verticalAlign=middle;resizable=0;points=[];autosize=1;strokeColor=none;fillColor=none;" vertex="1" parent="1">
          <mxGeometry x="130" y="420" width="30" height="30" as="geometry" />
        </mxCell>
        <mxCell id="_9Xual9Ycu1BCJmLohrW-49" value="M" style="text;html=1;align=center;verticalAlign=middle;resizable=0;points=[];autosize=1;strokeColor=none;fillColor=none;" vertex="1" parent="1">
          <mxGeometry x="210" y="156" width="30" height="30" as="geometry" />
        </mxCell>
        <mxCell id="_9Xual9Ycu1BCJmLohrW-51" value="1" style="text;html=1;align=center;verticalAlign=middle;resizable=0;points=[];autosize=1;strokeColor=none;fillColor=none;" vertex="1" parent="1">
          <mxGeometry x="626" y="405" width="30" height="30" as="geometry" />
        </mxCell>
        <mxCell id="_9Xual9Ycu1BCJmLohrW-52" value="M" style="text;html=1;align=center;verticalAlign=middle;resizable=0;points=[];autosize=1;strokeColor=none;fillColor=none;" vertex="1" parent="1">
          <mxGeometry x="626" y="198" width="30" height="30" as="geometry" />
        </mxCell>
        <mxCell id="_9Xual9Ycu1BCJmLohrW-53" value="" style="endArrow=none;html=1;rounded=0;entryX=0.5;entryY=1;entryDx=0;entryDy=0;exitX=0.572;exitY=-0.061;exitDx=0;exitDy=0;exitPerimeter=0;shape=link;" edge="1" parent="1" target="_9Xual9Ycu1BCJmLohrW-22">
          <mxGeometry relative="1" as="geometry">
            <mxPoint x="659.1999999999998" y="427.55999999999995" as="sourcePoint" />
            <mxPoint x="490" y="300" as="targetPoint" />
          </mxGeometry>
        </mxCell>
        <mxCell id="_9Xual9Ycu1BCJmLohrW-55" value="&lt;u&gt;Stu_id&lt;/u&gt;" style="whiteSpace=wrap;html=1;" vertex="1" parent="1">
          <mxGeometry x="10" y="690" width="90" height="30" as="geometry" />
        </mxCell>
        <mxCell id="_9Xual9Ycu1BCJmLohrW-58" value="Student" style="text;html=1;align=center;verticalAlign=middle;resizable=0;points=[];autosize=1;strokeColor=none;fillColor=none;" vertex="1" parent="1">
          <mxGeometry y="656" width="60" height="30" as="geometry" />
        </mxCell>
        <mxCell id="_9Xual9Ycu1BCJmLohrW-59" value="Stu_name" style="whiteSpace=wrap;html=1;" vertex="1" parent="1">
          <mxGeometry x="100" y="690" width="90" height="30" as="geometry" />
        </mxCell>
        <mxCell id="_9Xual9Ycu1BCJmLohrW-60" value="average" style="whiteSpace=wrap;html=1;" vertex="1" parent="1">
          <mxGeometry x="190" y="690" width="90" height="30" as="geometry" />
        </mxCell>
        <mxCell id="_9Xual9Ycu1BCJmLohrW-61" value="position" style="whiteSpace=wrap;html=1;" vertex="1" parent="1">
          <mxGeometry x="280" y="690" width="90" height="30" as="geometry" />
        </mxCell>
        <mxCell id="_9Xual9Ycu1BCJmLohrW-62" value="remarks" style="whiteSpace=wrap;html=1;" vertex="1" parent="1">
          <mxGeometry x="370" y="690" width="90" height="30" as="geometry" />
        </mxCell>
        <mxCell id="_9Xual9Ycu1BCJmLohrW-63" value="Class_teacher" style="text;html=1;align=center;verticalAlign=middle;resizable=0;points=[];autosize=1;strokeColor=none;fillColor=none;" vertex="1" parent="1">
          <mxGeometry x="5" y="770" width="100" height="30" as="geometry" />
        </mxCell>
        <mxCell id="_9Xual9Ycu1BCJmLohrW-65" value="Class" style="whiteSpace=wrap;html=1;" vertex="1" parent="1">
          <mxGeometry x="9" y="810" width="90" height="30" as="geometry" />
        </mxCell>
        <mxCell id="_9Xual9Ycu1BCJmLohrW-66" value="teacher_NIC" style="whiteSpace=wrap;html=1;" vertex="1" parent="1">
          <mxGeometry x="99" y="810" width="90" height="30" as="geometry" />
        </mxCell>
        <mxCell id="_9Xual9Ycu1BCJmLohrW-67" value="User_name" style="whiteSpace=wrap;html=1;" vertex="1" parent="1">
          <mxGeometry x="189" y="810" width="90" height="30" as="geometry" />
        </mxCell>
        <mxCell id="_9Xual9Ycu1BCJmLohrW-68" value="e_mail" style="whiteSpace=wrap;html=1;" vertex="1" parent="1">
          <mxGeometry x="279" y="810" width="90" height="30" as="geometry" />
        </mxCell>
        <mxCell id="_9Xual9Ycu1BCJmLohrW-69" value="subjects" style="text;html=1;align=center;verticalAlign=middle;resizable=0;points=[];autosize=1;strokeColor=none;fillColor=none;" vertex="1" parent="1">
          <mxGeometry y="888" width="70" height="30" as="geometry" />
        </mxCell>
        <mxCell id="_9Xual9Ycu1BCJmLohrW-70" value="&lt;u&gt;subject_name&lt;/u&gt;" style="whiteSpace=wrap;html=1;" vertex="1" parent="1">
          <mxGeometry x="10" y="930" width="90" height="30" as="geometry" />
        </mxCell>
        <mxCell id="_9Xual9Ycu1BCJmLohrW-71" value="teacher_name" style="whiteSpace=wrap;html=1;" vertex="1" parent="1">
          <mxGeometry x="100" y="930" width="90" height="30" as="geometry" />
        </mxCell>
        <mxCell id="_9Xual9Ycu1BCJmLohrW-72" value="test" style="text;html=1;align=center;verticalAlign=middle;resizable=0;points=[];autosize=1;strokeColor=none;fillColor=none;" vertex="1" parent="1">
          <mxGeometry x="10" y="1010" width="40" height="30" as="geometry" />
        </mxCell>
        <mxCell id="_9Xual9Ycu1BCJmLohrW-73" value="&lt;u&gt;test_name&lt;/u&gt;" style="whiteSpace=wrap;html=1;" vertex="1" parent="1">
          <mxGeometry x="10" y="1050" width="90" height="30" as="geometry" />
        </mxCell>
        <mxCell id="_9Xual9Ycu1BCJmLohrW-74" value="marks" style="whiteSpace=wrap;html=1;" vertex="1" parent="1">
          <mxGeometry x="100" y="1050" width="90" height="30" as="geometry" />
        </mxCell>
        <mxCell id="_9Xual9Ycu1BCJmLohrW-80" style="edgeStyle=orthogonalEdgeStyle;rounded=0;orthogonalLoop=1;jettySize=auto;html=1;entryX=0.5;entryY=0;entryDx=0;entryDy=0;exitX=0.5;exitY=1;exitDx=0;exitDy=0;" edge="1" parent="1" source="_9Xual9Ycu1BCJmLohrW-75" target="_9Xual9Ycu1BCJmLohrW-66">
          <mxGeometry relative="1" as="geometry">
            <mxPoint x="510" y="873" as="targetPoint" />
            <mxPoint x="735" y="768" as="sourcePoint" />
          </mxGeometry>
        </mxCell>
        <mxCell id="_9Xual9Ycu1BCJmLohrW-75" value="&lt;span style=&quot;border-color: var(--border-color);&quot;&gt;&lt;font color=&quot;#ff3333&quot;&gt;teacher_NIC&lt;/font&gt;&lt;/span&gt;" style="whiteSpace=wrap;html=1;" vertex="1" parent="1">
          <mxGeometry x="460" y="690" width="90" height="30" as="geometry" />
        </mxCell>
        <mxCell id="_9Xual9Ycu1BCJmLohrW-76" value="Study" style="text;html=1;align=center;verticalAlign=middle;resizable=0;points=[];autosize=1;strokeColor=none;fillColor=none;" vertex="1" parent="1">
          <mxGeometry y="1130" width="50" height="30" as="geometry" />
        </mxCell>
        <mxCell id="_9Xual9Ycu1BCJmLohrW-81" style="edgeStyle=orthogonalEdgeStyle;rounded=0;orthogonalLoop=1;jettySize=auto;html=1;entryX=0.5;entryY=1;entryDx=0;entryDy=0;exitX=0.389;exitY=1;exitDx=0;exitDy=0;exitPerimeter=0;" edge="1" parent="1">
          <mxGeometry relative="1" as="geometry">
            <mxPoint x="64" y="720" as="targetPoint" />
            <mxPoint x="49.01000000000022" y="1200" as="sourcePoint" />
            <Array as="points">
              <mxPoint x="49" y="1220" />
              <mxPoint x="-50" y="1220" />
              <mxPoint x="-50" y="750" />
              <mxPoint x="64" y="750" />
            </Array>
          </mxGeometry>
        </mxCell>
        <mxCell id="_9Xual9Ycu1BCJmLohrW-77" value="&lt;u&gt;Stu_id&lt;/u&gt;" style="whiteSpace=wrap;html=1;" vertex="1" parent="1">
          <mxGeometry x="5" y="1169" width="90" height="31" as="geometry" />
        </mxCell>
        <mxCell id="_9Xual9Ycu1BCJmLohrW-85" style="edgeStyle=orthogonalEdgeStyle;rounded=0;orthogonalLoop=1;jettySize=auto;html=1;exitX=0.25;exitY=1;exitDx=0;exitDy=0;entryX=0.5;entryY=1;entryDx=0;entryDy=0;" edge="1" parent="1" source="_9Xual9Ycu1BCJmLohrW-78" target="_9Xual9Ycu1BCJmLohrW-70">
          <mxGeometry relative="1" as="geometry">
            <mxPoint x="48.25" y="971.7" as="targetPoint" />
            <mxPoint x="120" y="1236" as="sourcePoint" />
            <Array as="points">
              <mxPoint x="118" y="1236" />
              <mxPoint x="120" y="1236" />
              <mxPoint x="120" y="1237" />
              <mxPoint x="380" y="1237" />
              <mxPoint x="380" y="980" />
              <mxPoint x="55" y="980" />
            </Array>
          </mxGeometry>
        </mxCell>
        <mxCell id="_9Xual9Ycu1BCJmLohrW-78" value="&lt;u&gt;subject_name&lt;/u&gt;" style="whiteSpace=wrap;html=1;" vertex="1" parent="1">
          <mxGeometry x="95" y="1169" width="90" height="31" as="geometry" />
        </mxCell>
        <mxCell id="_9Xual9Ycu1BCJmLohrW-86" style="edgeStyle=orthogonalEdgeStyle;rounded=0;orthogonalLoop=1;jettySize=auto;html=1;entryX=0.5;entryY=1;entryDx=0;entryDy=0;" edge="1" parent="1" source="_9Xual9Ycu1BCJmLohrW-79" target="_9Xual9Ycu1BCJmLohrW-73">
          <mxGeometry relative="1" as="geometry">
            <mxPoint x="260" y="1230" as="targetPoint" />
            <Array as="points">
              <mxPoint x="230" y="1220" />
              <mxPoint x="320" y="1220" />
              <mxPoint x="320" y="1110" />
              <mxPoint x="55" y="1110" />
            </Array>
          </mxGeometry>
        </mxCell>
        <mxCell id="_9Xual9Ycu1BCJmLohrW-79" value="&lt;u&gt;test_name&lt;/u&gt;" style="whiteSpace=wrap;html=1;" vertex="1" parent="1">
          <mxGeometry x="185" y="1169" width="90" height="31" as="geometry" />
        </mxCell>
        <mxCell id="_9Xual9Ycu1BCJmLohrW-87" value="Study" style="shape=rhombus;perimeter=rhombusPerimeter;whiteSpace=wrap;html=1;align=center;" vertex="1" parent="1">
          <mxGeometry x="370" y="150" width="120" height="60" as="geometry" />
        </mxCell>
        <mxCell id="_9Xual9Ycu1BCJmLohrW-88" value="" style="endArrow=none;html=1;rounded=0;exitX=1;exitY=0.5;exitDx=0;exitDy=0;entryX=0;entryY=0.5;entryDx=0;entryDy=0;" edge="1" parent="1" source="_9Xual9Ycu1BCJmLohrW-87" target="_9Xual9Ycu1BCJmLohrW-4">
          <mxGeometry relative="1" as="geometry">
            <mxPoint x="220" y="190" as="sourcePoint" />
            <mxPoint x="380" y="190" as="targetPoint" />
          </mxGeometry>
        </mxCell>
        <mxCell id="_9Xual9Ycu1BCJmLohrW-89" value="Entity" style="shape=ext;margin=3;double=1;whiteSpace=wrap;html=1;align=center;" vertex="1" parent="1">
          <mxGeometry x="610" y="430" width="100" height="40" as="geometry" />
        </mxCell>
      </root>
    </mxGraphModel>
  </diagram>
</mxfile>
